<?xml version="1.0" encoding="UTF-8" standalone="no"?>
<!DOCTYPE svg PUBLIC "-//W3C//DTD SVG 1.1//EN"
 "http://www.w3.org/Graphics/SVG/1.1/DTD/svg11.dtd">
<!-- Generated by graphviz version 2.38.0 (20140413.2041)
 -->
<!-- Title: G Pages: 1 -->
<svg width="1432pt" height="124pt"
 viewBox="0.00 0.00 1431.80 123.98" xmlns="http://www.w3.org/2000/svg" xmlns:xlink="http://www.w3.org/1999/xlink">
<g id="graph0" class="graph" transform="scale(1 1) rotate(0) translate(7.992 115.992)">
<title>G</title>
<polygon fill="#000000" stroke="none" points="-7.992,7.992 -7.992,-115.992 1423.81,-115.992 1423.81,7.992 -7.992,7.992"/>
<!-- index.js -->
<g id="node1" class="node"><title>index.js</title>
<ellipse fill="none" stroke="#c6c5fe" cx="724.734" cy="-90" rx="42.4939" ry="18"/>
<text text-anchor="middle" x="724.734" y="-86.3" font-family="Arial" font-size="14.00" fill="#c6c5fe">index.js</text>
</g>
<!-- ../node_modules/fun&#45;function/src/index.js -->
<g id="node2" class="node"><title>../node_modules/fun&#45;function/src/index.js</title>
<ellipse fill="none" stroke="#cfffac" cx="178.734" cy="-18" rx="178.969" ry="18"/>
<text text-anchor="middle" x="178.734" y="-14.3" font-family="Arial" font-size="14.00" fill="#cfffac">../node_modules/fun&#45;function/src/index.js</text>
</g>
<!-- index.js&#45;&gt;../node_modules/fun&#45;function/src/index.js -->
<g id="edge1" class="edge"><title>index.js&#45;&gt;../node_modules/fun&#45;function/src/index.js</title>
<path fill="none" stroke="#757575" d="M684.585,-83.8527C603.382,-73.442 416.971,-49.5432 294.54,-33.8469"/>
<polygon fill="#757575" stroke="#757575" points="294.734,-30.3432 284.37,-32.543 293.844,-37.2864 294.734,-30.3432"/>
</g>
<!-- ../node_modules/fun&#45;object/src/index.js -->
<g id="node3" class="node"><title>../node_modules/fun&#45;object/src/index.js</title>
<ellipse fill="none" stroke="#cfffac" cx="547.734" cy="-18" rx="172.47" ry="18"/>
<text text-anchor="middle" x="547.734" y="-14.3" font-family="Arial" font-size="14.00" fill="#cfffac">../node_modules/fun&#45;object/src/index.js</text>
</g>
<!-- index.js&#45;&gt;../node_modules/fun&#45;object/src/index.js -->
<g id="edge2" class="edge"><title>index.js&#45;&gt;../node_modules/fun&#45;object/src/index.js</title>
<path fill="none" stroke="#757575" d="M694.709,-77.1255C668.519,-66.768 629.964,-51.5201 598.912,-39.24"/>
<polygon fill="#757575" stroke="#757575" points="600.125,-35.9559 589.539,-35.5329 597.551,-42.4653 600.125,-35.9559"/>
</g>
<!-- ../node_modules/fun&#45;type/src/index.js -->
<g id="node4" class="node"><title>../node_modules/fun&#45;type/src/index.js</title>
<ellipse fill="none" stroke="#cfffac" cx="902.734" cy="-18" rx="164.371" ry="18"/>
<text text-anchor="middle" x="902.734" y="-14.3" font-family="Arial" font-size="14.00" fill="#cfffac">../node_modules/fun&#45;type/src/index.js</text>
</g>
<!-- index.js&#45;&gt;../node_modules/fun&#45;type/src/index.js -->
<g id="edge3" class="edge"><title>index.js&#45;&gt;../node_modules/fun&#45;type/src/index.js</title>
<path fill="none" stroke="#757575" d="M754.929,-77.1255C781.267,-66.768 820.04,-51.5201 851.267,-39.24"/>
<polygon fill="#757575" stroke="#757575" points="852.668,-42.4499 860.693,-35.5329 850.106,-35.9355 852.668,-42.4499"/>
</g>
<!-- ../node_modules/guarded/src/index.js -->
<g id="node5" class="node"><title>../node_modules/guarded/src/index.js</title>
<ellipse fill="none" stroke="#cfffac" cx="1250.73" cy="-18" rx="165.171" ry="18"/>
<text text-anchor="middle" x="1250.73" y="-14.3" font-family="Arial" font-size="14.00" fill="#cfffac">../node_modules/guarded/src/index.js</text>
</g>
<!-- index.js&#45;&gt;../node_modules/guarded/src/index.js -->
<g id="edge4" class="edge"><title>index.js&#45;&gt;../node_modules/guarded/src/index.js</title>
<path fill="none" stroke="#757575" d="M764.701,-83.6812C843.906,-73.1406 1023.26,-49.2724 1140.54,-33.6647"/>
<polygon fill="#757575" stroke="#757575" points="1141.18,-37.1102 1150.63,-32.3216 1140.26,-30.1714 1141.18,-37.1102"/>
</g>
</g>
</svg>
